<svg width="32" height="32" viewBox="0 0 32 32" fill="none" xmlns="http://www.w3.org/2000/svg">
<circle cx="16" cy="16" r="16" fill="#18222E"/>
<path fill-rule="evenodd" clip-rule="evenodd" d="M22.1813 4.08971C22.6292 4.03406 23.0482 4.27595 23.224 4.69175C25.4138 9.87107 25.1428 14.408 22.338 19.5224C20.9969 21.9636 19.5027 24.0451 17.7336 25.567C15.9469 27.0803 13.7109 28.1406 11.0581 28.5945C10.7243 28.6503 10.3924 28.5397 10.1651 28.2968C9.71222 27.813 10.0164 27.0703 9.95837 26.4644C9.40433 26.7173 8.91401 27.352 8.26809 27.2016C7.94415 27.1262 7.6824 26.8941 7.5638 26.5771C6.63052 24.0527 6.4308 21.5862 6.84787 19.2821C7.28143 16.9891 8.33689 14.6543 9.78047 12.2723C12.8073 7.28609 16.6009 4.78289 22.1813 4.08971ZM12.054 26.2691C13.8062 25.8254 15.1699 25.0247 16.4383 23.9311C18.0062 22.6034 19.2475 20.8539 20.519 18.5311C22.7061 14.5431 23.3148 11.4775 22.05 7.57459L18.0316 14.5346C18.901 15.4112 18.7462 16.7494 18.0653 17.9287C17.3845 19.108 16.303 19.9112 15.1091 19.5965L11.8213 25.2911C11.8213 25.2911 12.0308 26.0355 12.054 26.2691ZM9.064 24.5428C8.57213 22.8035 8.59948 21.2312 8.91235 19.586C9.27823 17.5642 10.1727 15.6145 11.5485 13.352C13.904 9.47166 16.2564 7.39807 20.2559 6.5388L16.2375 13.4988C15.0437 13.1841 13.9622 13.9873 13.2813 15.1666C12.6004 16.3459 12.4456 17.6841 13.3151 18.5607L10.0273 24.2553C10.0273 24.2553 9.26995 24.4497 9.064 24.5428ZM16.404 15.2822C15.7434 14.9008 14.8808 15.1582 14.4773 15.8571C14.0738 16.5561 14.2822 17.4318 14.9427 17.8131C15.6032 18.1945 16.4658 17.9371 16.8693 17.2382C17.2729 16.5393 17.0644 15.6635 16.404 15.2822Z" fill="white"/>
</svg>
