<svg xmlns="http://www.w3.org/2000/svg" xmlns:xlink="http://www.w3.org/1999/xlink" viewBox="0 0 221 337"><g fill="#EFF4F9" transform="translate(0 .24)"><use xlink:href="#a"/><use xlink:href="#b"/><use xlink:href="#c"/><use xlink:href="#d"/><use xlink:href="#e"/><use xlink:href="#f"/><use xlink:href="#g"/><use xlink:href="#h"/><use xlink:href="#i"/><use xlink:href="#j"/><use xlink:href="#k"/><use xlink:href="#l"/><use xlink:href="#m"/><use xlink:href="#n"/><use xlink:href="#o"/><use xlink:href="#p"/><use xlink:href="#q"/><use xlink:href="#r"/><use xlink:href="#s"/><use xlink:href="#t"/><use xlink:href="#u"/><use xlink:href="#v"/><use xlink:href="#w"/><use xlink:href="#x"/><use xlink:href="#y"/><use xlink:href="#z"/><use xlink:href="#A"/><use xlink:href="#B"/><use xlink:href="#C"/><use xlink:href="#D"/><use xlink:href="#E"/><use xlink:href="#F"/><use xlink:href="#G"/><use xlink:href="#H"/><use xlink:href="#I"/><use xlink:href="#J"/><use xlink:href="#K"/><use xlink:href="#L"/><use xlink:href="#M"/><use xlink:href="#N"/><use xlink:href="#O"/><use xlink:href="#P"/><use xlink:href="#Q"/><use xlink:href="#R"/><use xlink:href="#S"/><use xlink:href="#T"/><use xlink:href="#U"/><use xlink:href="#V"/><use xlink:href="#W"/><use xlink:href="#X"/><use xlink:href="#Y"/><use xlink:href="#Z"/><use xlink:href="#aa"/><use xlink:href="#ab"/><use xlink:href="#ac"/><use xlink:href="#ad"/><use xlink:href="#ae"/><use xlink:href="#af"/><use xlink:href="#ag"/><use xlink:href="#ah"/><use xlink:href="#ai"/><use xlink:href="#aj"/><use xlink:href="#ak"/><use xlink:href="#al"/><use xlink:href="#am"/><use xlink:href="#an"/><use xlink:href="#ao"/><use xlink:href="#ap"/><use xlink:href="#aq"/><use xlink:href="#ar"/><use xlink:href="#as"/><use xlink:href="#at"/><use xlink:href="#au"/><use xlink:href="#av"/><use xlink:href="#aw"/><use xlink:href="#ax"/><use xlink:href="#ay"/><use xlink:href="#az"/><use xlink:href="#aA"/><use xlink:href="#aB"/><use xlink:href="#aC"/><use xlink:href="#aD"/><use xlink:href="#aE"/><use xlink:href="#aF"/><use xlink:href="#aG"/><use xlink:href="#aH"/><use xlink:href="#aI"/><use xlink:href="#aJ"/><use xlink:href="#aK"/><use xlink:href="#aL"/><use xlink:href="#aM"/><use xlink:href="#aN"/><use xlink:href="#aO"/><use xlink:href="#aP"/><use xlink:href="#aQ"/><use xlink:href="#aR"/><use xlink:href="#aS"/><use xlink:href="#aT"/><use xlink:href="#aU"/><use xlink:href="#aV"/><use xlink:href="#aW"/><use xlink:href="#aX"/><use xlink:href="#aY"/></g><defs><path id="a" fill-rule="evenodd" d="M27.612 209.976a51.353 51.353 0 0 0-8.972.669c-3.57.592-7.386 1.507-10.524 3.704-2.505 1.754-4.31 4.315-5.65 6.891-1.382 2.663-2.3 5.669-2.432 8.712-.19 4.308.388 8.919 2.433 12.869 3.197 6.177 8.184 12.128 14.667 15.117 4.847 2.235 10.633 2.2 15.68 1.02 6.025-1.407 11.954-4.618 16.089-9.279 3.587-4.045 5.46-9.458 6.249-14.643.638-4.192.415-8.772-1.302-12.775-1.39-3.241-3.917-5.991-6.79-7.925-3.165-2.131-6.964-2.963-10.502-3.556a58.154 58.154 0 0 0-8.946-.804Zm-.026 2.167c2.888.033 5.778.3 8.61.775 3.452.578 6.938 1.392 9.644 3.213 2.565 1.727 4.819 4.212 6.006 6.98 1.506 3.51 1.744 7.72 1.153 11.604-.745 4.898-2.536 9.932-5.73 13.533-3.776 4.257-9.34 7.29-14.952 8.602-4.69 1.096-10.04 1.074-14.268-.876-5.862-2.703-10.613-8.283-13.647-14.143-1.802-3.483-2.368-7.741-2.19-11.786.116-2.668.935-5.393 2.19-7.81 1.24-2.385 2.884-4.652 4.969-6.113 2.684-1.878 6.175-2.767 9.627-3.34a49.377 49.377 0 0 1 8.588-.639Z"/><path id="b" fill-rule="evenodd" d="M3.632 220.779a1.092 1.092 0 0 0-.967.732 1.081 1.081 0 0 0 .317 1.169s1.02.906 2.348 1.93c1.328 1.024 2.925 2.176 4.377 2.743 6.151 2.403 12.921 2.703 19.33 2.646 13.557-.122 24.043-5.791 24.043-5.791a1.088 1.088 0 0 0 .589-1.072 1.08 1.08 0 0 0-.787-.936 1.079 1.079 0 0 0-.84.103s-10.068 5.412-23.026 5.528c-6.323.057-12.813-.271-18.513-2.497-.974-.38-2.573-1.464-3.837-2.439a46.903 46.903 0 0 1-2.234-1.833 1.096 1.096 0 0 0-.8-.283Z"/><path id="c" fill-rule="evenodd" d="M53.77 228.5c-.283.011-.55.131-.745.335 0 0-.491.496-1.132 1.079-.64.584-1.46 1.259-1.91 1.516-2.65 1.515-5.697 2.465-8.776 3.06-2.63.509-8.746.385-8.746.385a1.09 1.09 0 0 0-1.119 1.054 1.083 1.083 0 0 0 1.06 1.114s5.967.206 9.222-.423c3.241-.626 6.512-1.635 9.444-3.311.794-.454 1.61-1.165 2.297-1.791a33.285 33.285 0 0 0 1.212-1.16 1.078 1.078 0 0 0-.185-1.688 1.1 1.1 0 0 0-.623-.166v-.004Z"/><path id="d" fill-rule="evenodd" d="M52.884 237.873c-.17.005-.338.05-.489.132 0 0-5.685 2.906-8.423 3.687-1.834.524-6.317.91-6.317.91a1.094 1.094 0 0 0-.743.377 1.08 1.08 0 0 0 .12 1.529c.22.187.505.28.794.257 0 0 4.35-.306 6.746-.99 3.3-.942 8.831-3.848 8.831-3.848a1.082 1.082 0 0 0-.519-2.054Z"/><path id="e" fill-rule="evenodd" d="M28.199 214.624c-2.002.021-4.563.063-7.002.245-2.44.182-4.73.476-6.381 1.118-3.147 1.224-4.67 3.535-4.67 3.535a1.078 1.078 0 0 0 .331 1.507s4.903 3.127 9.41 4.072c4.42.927 11.7.965 16.16.067 4.55-.915 9.614-4.068 9.614-4.068a1.09 1.09 0 0 0 .514-.844 1.081 1.081 0 0 0-.386-.909s-3.212-2.771-6.424-3.793c-3.12-.992-7.168-.966-11.162-.931l-.004.001Zm.021 2.167c3.979-.035 7.918.022 10.482.83 1.827.581 3.156 1.72 4.199 2.502-1.654.908-4.455 2.352-7.283 2.921-3.966.797-11.351.76-15.28-.063-2.943-.618-5.844-2.188-7.338-3.04.468-.555.798-1.23 2.607-1.934 1.184-.46 3.398-.798 5.752-.974 2.353-.175 4.876-.225 6.861-.242Z"/><path id="f" fill-rule="evenodd" d="m17.815 205.366-2.08.639 5.65 18.288 2.08-.64-5.65-18.287Z"/><path id="g" fill-rule="evenodd" d="M46.912 200.193a1.096 1.096 0 0 0-.392.084l-9.256 3.725a1.085 1.085 0 0 0-.664.822l-3.339 19.168a1.078 1.078 0 0 0 .184.809 1.092 1.092 0 0 0 1.964-.441l3.233-18.575 8.695-3.497a1.088 1.088 0 0 0 .679-1.227 1.083 1.083 0 0 0-1.104-.868Z"/><path id="h" fill-rule="evenodd" d="M15.446 198.571a1.097 1.097 0 0 0-.8.394l-7.01 8.399a1.079 1.079 0 0 0 .438 1.698c.214.084.449.098.672.042l17.356-4.471a1.083 1.083 0 0 0 .114-2.061l-10.345-3.929a1.121 1.121 0 0 0-.425-.072Zm.378 2.371 6.428 2.443-10.784 2.777 4.356-5.22Z"/><path id="i" fill-rule="evenodd" d="M14.616 195.757a1.08 1.08 0 0 0-.86.476 1.08 1.08 0 0 0-.123.971l.885 2.599a1.09 1.09 0 0 0 2.125-.271 1.077 1.077 0 0 0-.062-.423l-.884-2.599a1.084 1.084 0 0 0-1.08-.753Z"/><path id="j" fill-rule="evenodd" d="M7.648 229.529a.554.554 0 0 0-.285.106l-6.355 4.5a.548.548 0 0 0-.215.565.544.544 0 0 0 .654.407.554.554 0 0 0 .195-.087l6.35-4.504a.544.544 0 0 0 .205-.624.543.543 0 0 0-.549-.363Z"/><path id="k" fill-rule="evenodd" d="M9.741 231.925a.548.548 0 0 0-.28.119l-7.22 5.652a.536.536 0 0 0-.213.583.544.544 0 0 0 .886.268l7.219-5.652a.543.543 0 0 0 .174-.633.543.543 0 0 0-.566-.337Z"/><path id="l" fill-rule="evenodd" d="M12.66 233.936a.543.543 0 0 0-.332.134l-8.76 7.472a.54.54 0 0 0 .313.958.536.536 0 0 0 .399-.137l8.758-7.471a.54.54 0 0 0-.379-.956Z"/><path id="m" fill-rule="evenodd" d="M14.871 236.903a.551.551 0 0 0-.332.139l-9.048 7.852a.547.547 0 0 0-.198.374.537.537 0 0 0 .304.533.54.54 0 0 0 .61-.09l9.047-7.852a.544.544 0 0 0 .157-.617.542.542 0 0 0-.54-.339Z"/><path id="n" fill-rule="evenodd" d="M17.292 239.587a.55.55 0 0 0-.336.128l-9.912 8.141a.54.54 0 0 0 .294.959.545.545 0 0 0 .4-.122l9.911-8.14a.54.54 0 0 0-.357-.966Z"/><path id="o" fill-rule="evenodd" d="M19.589 242.94a.54.54 0 0 0-.29.102l-10.205 7.183a.56.56 0 0 0-.222.351.542.542 0 0 0 .852.534l10.205-7.184a.54.54 0 0 0-.34-.986Z"/><path id="p" fill-rule="evenodd" d="M22.511 244.853a.544.544 0 0 0-.34.115l-9.529 7.184a.542.542 0 1 0 .66.863l9.528-7.183a.543.543 0 0 0-.319-.979Z"/><path id="q" fill-rule="evenodd" d="M25.408 246.864a.544.544 0 0 0-.34.115l-10.303 7.565a.532.532 0 0 0-.222.355.543.543 0 0 0 .869.516l10.303-7.568a.545.545 0 0 0 .203-.601.54.54 0 0 0-.51-.382Z"/><path id="r" fill-rule="evenodd" d="M28.305 249.163a.544.544 0 0 0-.387.138l-8.372 7.282a.53.53 0 0 0-.198.373.538.538 0 0 0 .132.402.545.545 0 0 0 .781.042l8.376-7.282a.541.541 0 0 0-.332-.955Z"/><path id="s" fill-rule="evenodd" d="M31.815 251.749a.548.548 0 0 0-.37.173l-6.16 6.418a.542.542 0 1 0 .787.749l6.16-6.417a.542.542 0 0 0-.417-.923Z"/><path id="t" fill-rule="evenodd" d="M51.921 61.45a1.093 1.093 0 0 0-.852-.13s-5.634 1.446-8.507 2.474c-1.713.613-3.684 1.132-5.425 2.343-1.329.924-2.629 2.112-3.453 3.667-.776 1.463-.918 3.06-1.005 4.464-.135 2.16.51 5.735.51 5.735a1.088 1.088 0 0 0 .828.882 1.09 1.09 0 0 0 1.131-.422 1.079 1.079 0 0 0 .188-.81s-.58-3.738-.486-5.241c.083-1.34.244-2.624.755-3.587.59-1.114 1.63-2.103 2.782-2.906 1.334-.927 3.099-1.433 4.917-2.083 2.262-.81 5.962-1.766 7.17-2.083.243 1.182.924 4.368 1.06 6.39.134 1.969.278 3.876-.138 5.541-.398 1.594-1.144 3.151-2.172 4.382-.65.777-1.571 1.421-2.566 1.901-.426.206-1.395.483-2.195.664-.8.18-1.449.288-1.449.288a1.088 1.088 0 0 0-.878.827 1.083 1.083 0 0 0 .141.82 1.096 1.096 0 0 0 1.106.496s.705-.122 1.568-.316c.863-.195 1.866-.44 2.662-.825 1.198-.578 2.375-1.369 3.285-2.458 1.27-1.52 2.134-3.358 2.604-5.242.534-2.134.333-4.267.201-6.21-.19-2.804-1.297-7.86-1.297-7.86a1.09 1.09 0 0 0-.487-.697l.002-.004Z"/><path id="u" fill-rule="evenodd" d="M59.022 55.065c-2.16-1.862-5.128-1.925-7.485-1.975-2.2-.047-4.546.303-6.59 1.382-2.288 1.208-4.054 3.175-5.413 5.199-.805 1.2-1.463 2.92-1.98 4.4-.517 1.479-.861 2.7-.861 2.7l2.092.596s.33-1.164.823-2.575c.493-1.411 1.185-3.087 1.737-3.91 1.232-1.836 2.797-3.525 4.626-4.49 1.6-.845 3.602-1.173 5.531-1.132 2.308.049 4.724.257 6.102 1.445 1.242 1.07 1.905 3.156 2.04 5.074.142 1.997-.52 4.19-1.575 6.022-.704 1.223-2.326 2.134-3.739 3.643-.868.927-2.375 2.735-2.375 2.735l1.677 1.393s1.539-1.84 2.293-2.645l-.004-.002c1.076-1.149 2.922-2.104 4.034-4.035 1.226-2.129 2.042-4.687 1.86-7.255-.16-2.268-.847-4.893-2.793-6.57Z"/><path id="v" fill-rule="evenodd" d="M33.103 74.298s-4.63 5.48-6.484 8.892c-1.027 1.887-2.627 4.098-2.515 6.814L24.101 90c.105 2.571 1.299 5.209 3.306 6.9 1.895 1.597 4.488 2.119 6.796 1.96 2.63-.182 5.146-1.405 7.056-3.093 2-1.768 2.73-4.27 3.721-6.147 1.071-2.026 2.793-6.003 2.793-6.003l-1.998-.87s-1.75 4.027-2.718 5.856c-1.126 2.13-1.848 4.301-3.245 5.536-1.585 1.4-3.725 2.413-5.763 2.554-1.846.127-3.947-.357-5.24-1.447-1.45-1.222-2.452-3.392-2.532-5.323-.072-1.749 1.15-3.66 2.255-5.693 1.58-2.908 6.245-8.536 6.245-8.536l-1.674-1.397Z"/><path id="w" fill-rule="evenodd" d="M53.011 59.298a1.092 1.092 0 0 0-.825-.113 1.081 1.081 0 0 0-.661.502l-1.285 2.132a1.08 1.08 0 0 0 .057 1.205 1.093 1.093 0 0 0 1.522.234c.115-.085.212-.19.285-.312l1.288-2.136a1.078 1.078 0 0 0-.058-1.224 1.095 1.095 0 0 0-.323-.288Z"/><path id="x" fill-rule="evenodd" d="M75.389 75a1.093 1.093 0 0 0-.862-.083s-4.933 1.57-7.456 2.808c-1.748.857-3.696 1.75-5.277 3.278-1.396 1.35-2.556 3.017-3.238 4.876-.488 1.333-.584 2.747-.486 4.075.065.88.354 1.872.617 2.717s.51 1.516.51 1.516a1.094 1.094 0 0 0 1.763.422 1.082 1.082 0 0 0 .277-1.174s-.23-.616-.474-1.398c-.244-.783-.489-1.762-.523-2.233-.082-1.102.015-2.223.363-3.174.552-1.505 1.528-2.93 2.709-4.071 1.234-1.193 2.957-2.022 4.73-2.89 1.819-.893 4.918-1.897 6.064-2.277.329 1.205 1.351 4.886 1.781 7.25.346 1.9.79 3.682.654 5.3-.118 1.4-.456 2.795-1.125 3.863-.579.923-1.61 1.705-2.73 2.447-1.254.832-4.782 2.2-4.782 2.2a1.081 1.081 0 0 0-.407 1.757 1.083 1.083 0 0 0 .76.345c.142.005.285-.018.418-.068 0 0 3.418-1.23 5.222-2.426 1.173-.778 2.484-1.699 3.363-3.102.935-1.492 1.313-3.211 1.45-4.824.178-2.114-.358-4.08-.684-5.87-.546-3.002-2.11-8.604-2.11-8.604a1.09 1.09 0 0 0-.525-.665l-.002.004Z"/><path id="y" fill-rule="evenodd" d="M77.353 65.649c-2.425-.847-5.042-.13-7.086.865-2.315 1.127-4.123 3.114-5.353 5.239-1.117 1.929-1.02 4.005-1.477 5.51l-.004-.001c-.32 1.056-1.144 3.308-1.144 3.308l2.044.756s.813-2.21 1.181-3.424c.601-1.98.579-3.839 1.286-5.06 1.06-1.83 2.627-3.5 4.427-4.376 1.729-.841 3.867-1.31 5.415-.77 1.718.6 3.106 2.588 4.303 4.562 1 1.65 1.716 3.548 1.785 5.357.078 2.066-.602 4.265-1.576 6.251-.437.89-1.542 2.326-2.518 3.459-.975 1.133-1.818 2-1.818 2l1.563 1.514s.885-.909 1.907-2.096c1.023-1.187 2.183-2.617 2.82-3.915 1.074-2.188 1.894-4.702 1.796-7.287-.087-2.31-.957-4.516-2.097-6.398-1.222-2.016-2.76-4.555-5.454-5.494Z"/><path id="z" fill-rule="evenodd" d="m73.657 97.711-2.047-.751s-2.542 6.853-4.27 9.676c-1.208 1.974-2.252 3.988-3.803 4.8-1.712.897-4.092 1.114-5.875.469-1.591-.575-3.061-2.153-3.874-3.815-.896-1.835-1.09-4.194-.67-6.267.371-1.828 1.89-3.539 3.172-5.58 1.1-1.751 3.713-5.28 3.713-5.28l-1.753-1.296s-2.586 3.484-3.804 5.424c-1.13 1.798-2.932 3.68-3.463 6.296-.507 2.498-.307 5.288.85 7.656 1.016 2.079 2.764 4.064 5.095 4.907 2.468.892 5.35.607 7.628-.587l-.004-.002c2.409-1.261 3.523-3.752 4.644-5.585 2.028-3.311 4.459-10.061 4.459-10.061l.002-.004Z"/><path id="A" fill-rule="evenodd" d="M76.663 72.954a1.09 1.09 0 0 0-.828-.082 1.081 1.081 0 0 0-.64.524l-1.207 2.183a1.082 1.082 0 0 0-.09.825 1.092 1.092 0 0 0 1.998.226l1.204-2.179a1.08 1.08 0 0 0-.102-1.223 1.093 1.093 0 0 0-.335-.274Z"/><path id="B" fill-rule="evenodd" d="M33.74 80.888a.546.546 0 0 0-.354-.052l-4.962.894a.54.54 0 0 0-.209.98.547.547 0 0 0 .408.088l4.962-.894a.542.542 0 0 0 .154-1.016Z"/><path id="C" fill-rule="evenodd" d="M33.548 82.767a.545.545 0 0 0-.406-.045l-6.61 1.825a.542.542 0 0 0 .082 1.065.545.545 0 0 0 .214-.02l6.609-1.825a.541.541 0 0 0 .111-1Z"/><path id="D" fill-rule="evenodd" d="M33.044 85.13a.546.546 0 0 0-.405-.024l-7.115 2.31a.541.541 0 0 0-.074 1.001.546.546 0 0 0 .416.033l7.111-2.313a.54.54 0 0 0 .067-1.008Z"/><path id="E" fill-rule="evenodd" d="M32.557 87.503a.546.546 0 0 0-.408-.016l-6.768 2.287a.54.54 0 0 0-.068 1.009.547.547 0 0 0 .424.017l6.764-2.288a.54.54 0 0 0 .296-.795.547.547 0 0 0-.24-.214Z"/><path id="F" fill-rule="evenodd" d="M32.554 89.27a.547.547 0 0 0-.46-.01l-6.182 2.623a.54.54 0 0 0 .012 1.004.548.548 0 0 0 .417-.003l6.182-2.624a.541.541 0 0 0 .03-.99Z"/><path id="G" fill-rule="evenodd" d="M32.367 91.704a.547.547 0 0 0-.459-.005l-5.04 2.178a.542.542 0 0 0 .23 1.042.544.544 0 0 0 .207-.046l5.037-2.181a.54.54 0 0 0 .025-.988Z"/><path id="H" fill-rule="evenodd" d="M32.149 94.013a.544.544 0 0 0-.555.041l-2.376 1.615a.54.54 0 0 0-.14.754.547.547 0 0 0 .756.144l2.377-1.614a.539.539 0 0 0 .15-.754.547.547 0 0 0-.212-.186Z"/><path id="I" fill-rule="evenodd" d="M49.816 56.045a.546.546 0 0 0-.407-.044l-7.484 1.936a.542.542 0 1 0 .278 1.05l7.48-1.938a.541.541 0 0 0 .133-1.004Z"/><path id="J" fill-rule="evenodd" d="M48.428 58.373a.545.545 0 0 0-.454-.057l-7.999 2.42a.542.542 0 0 0 .107 1.06c.071.007.143 0 .212-.02l7.999-2.42a.541.541 0 0 0 .135-.983Z"/><path id="K" fill-rule="evenodd" d="M46.889 61.004a.546.546 0 0 0-.406-.054l-6.64 1.563a.542.542 0 0 0 .031 1.075c.074.008.15 0 .22-.021l6.64-1.563a.542.542 0 0 0 .155-1Z"/><path id="L" fill-rule="evenodd" d="M59.557 95.793a.546.546 0 0 0-.354-.051l-4.961.894a.54.54 0 0 0-.21.98.546.546 0 0 0 .408.088l4.962-.894a.54.54 0 0 0 .155-1.017Z"/><path id="M" fill-rule="evenodd" d="M59.366 97.672a.546.546 0 0 0-.407-.044l-6.609 1.825a.542.542 0 1 0 .295 1.045l6.61-1.825a.54.54 0 0 0 .11-1Z"/><path id="N" fill-rule="evenodd" d="M58.861 100.035a.546.546 0 0 0-.404-.023l-7.115 2.31a.53.53 0 0 0-.316.27.543.543 0 0 0 .242.731.546.546 0 0 0 .415.032l7.112-2.312a.541.541 0 0 0 .066-1.008Z"/><path id="O" fill-rule="evenodd" d="M58.375 102.409a.545.545 0 0 0-.409-.016l-6.767 2.286a.547.547 0 0 0-.324.272.538.538 0 0 0 .082.608.538.538 0 0 0 .384.181.554.554 0 0 0 .213-.034l6.764-2.289a.537.537 0 0 0 .296-.794.545.545 0 0 0-.24-.214Z"/><path id="P" fill-rule="evenodd" d="M58.371 104.176a.551.551 0 0 0-.46-.011l-6.181 2.624a.542.542 0 0 0 .012 1.004.554.554 0 0 0 .417-.003l6.181-2.625a.54.54 0 0 0 .031-.989Z"/><path id="Q" fill-rule="evenodd" d="M58.184 106.61a.55.55 0 0 0-.458-.006l-5.04 2.179a.546.546 0 0 0-.33.507.547.547 0 0 0 .559.535.552.552 0 0 0 .208-.047l5.036-2.18a.546.546 0 0 0 .332-.485.541.541 0 0 0-.307-.503Z"/><path id="R" fill-rule="evenodd" d="M57.967 108.919a.545.545 0 0 0-.555.041l-2.376 1.615a.535.535 0 0 0-.228.347.542.542 0 0 0 .436.635.544.544 0 0 0 .408-.084l2.376-1.615a.538.538 0 0 0 .151-.753.54.54 0 0 0-.212-.186Z"/><path id="S" fill-rule="evenodd" d="M132.741 167.499c-2.711-.208-5.52.381-7.929 1.604-2.853 1.45-5.494 3.69-7.121 6.528-1.633 2.849-2.419 6.311-2.042 9.597.451 3.928 2.093 8.057 5.105 10.832 3.238 2.985 7.9 4.931 12.387 4.623 4.555-.312 8.92-2.945 11.783-6.346 2.428-2.883 3.5-6.804 3.523-10.443.015-4.116-.926-8.836-3.978-11.997-3.037-3.147-7.706-4.086-11.728-4.394v-.004Zm-.17 2.163c3.794.291 7.932 1.255 10.324 3.734 2.436 2.523 3.387 6.72 3.374 10.485-.021 3.215-1.016 6.694-3.012 9.064-2.509 2.979-6.478 5.315-10.269 5.575-3.736.256-7.946-1.459-10.754-4.047-2.499-2.304-4.022-5.993-4.424-9.491-.318-2.768.369-5.836 1.77-8.28 1.364-2.38 3.695-4.386 6.219-5.668 2.045-1.039 4.497-1.546 6.772-1.372Z"/><path id="T" fill-rule="evenodd" d="M134.077 153.813c-8.116-.556-16.689 2.999-22.597 8.441-5.443 5.014-8.484 12.588-9.312 19.79-.684 5.955.75 12.302 3.722 17.483 2.948 5.139 7.782 9.246 13.009 11.9 4.375 2.221 9.509 3.293 14.421 2.916 7.47-.572 16.022-2.348 21.457-7.975 5.473-5.667 7.25-14.32 7.223-21.911-.041-6.661-2.022-13.842-6.402-19.041-5.235-6.214-13.284-11.034-21.521-11.599v-.004Zm-.149 2.159c7.475.512 15.118 5.04 19.998 10.833 3.948 4.686 5.858 11.424 5.896 17.661.026 7.24-1.757 15.37-6.615 20.399-4.789 4.959-12.814 6.765-20.057 7.32-4.476.342-9.249-.652-13.26-2.689-4.897-2.486-9.422-6.363-12.107-11.044-2.739-4.777-4.074-10.726-3.449-16.162.778-6.772 3.696-13.902 8.626-18.444 5.477-5.046 13.604-8.379 20.968-7.874Z"/><path id="U" fill-rule="evenodd" d="m119.439 157.737-1.88 1.096 7.079 12.057 1.88-1.097-7.079-12.056Z"/><path id="V" fill-rule="evenodd" d="m145.907 158.364-7.487 11.243 1.812 1.198 7.487-11.243-1.812-1.198Z"/><path id="W" fill-rule="evenodd" d="m155.917 168.193-10.89 6.502 1.123 1.859 10.89-6.503-1.123-1.858Z"/><path id="X" fill-rule="evenodd" d="m146.554 189.457-1.115 1.862 12.796 7.586 1.115-1.863-12.796-7.585Z"/><path id="Y" fill-rule="evenodd" d="m141.577 196.39-2.051.733 4.901 13.546 2.05-.732-4.9-13.547Z"/><path id="Z" fill-rule="evenodd" d="m123.412 197.161-6.806 11.65 1.88 1.088 6.807-11.65-1.881-1.088Z"/><path id="aa" fill-rule="evenodd" d="m118.376 190.121-12.115 6.773 1.063 1.892 12.115-6.773-1.063-1.892Z"/><path id="ab" fill-rule="evenodd" d="m107.367 168.798-1.038 1.905 11.298 6.096 1.038-1.905-11.298-6.096Z"/><path id="ac" fill-rule="evenodd" d="M109.064 172.638a.547.547 0 0 0-.345.106l-4.56 3.251a.546.546 0 0 0-.123.758.542.542 0 0 0 .355.218.543.543 0 0 0 .406-.095l4.56-3.251a.544.544 0 0 0 .212-.599.542.542 0 0 0-.505-.388Z"/><path id="ad" fill-rule="evenodd" d="M109.8 174.331a.552.552 0 0 0-.383.147l-6.058 5.554a.56.56 0 0 0-.176.378.56.56 0 0 0 .033.21.563.563 0 0 0 .111.181.563.563 0 0 0 .38.175.562.562 0 0 0 .393-.144l6.057-5.554a.537.537 0 0 0 .15-.596.544.544 0 0 0-.507-.351Z"/><path id="ae" fill-rule="evenodd" d="M110.642 176.702a.537.537 0 0 0-.327.139l-7.828 6.841a.526.526 0 0 0-.2.374.543.543 0 0 0 .915.442l7.831-6.84a.544.544 0 0 0 .156-.621.537.537 0 0 0-.547-.335Z"/><path id="af" fill-rule="evenodd" d="M111.097 179.343a.553.553 0 0 0-.383.143l-7.691 6.909a.539.539 0 0 0-.038.766.545.545 0 0 0 .77.038l7.691-6.909a.542.542 0 0 0-.043-.847.55.55 0 0 0-.306-.1Z"/><path id="ag" fill-rule="evenodd" d="M111.871 181.985a.542.542 0 0 0-.327.134l-8.304 7.112a.528.528 0 0 0-.195.372.542.542 0 0 0 .906.449l8.303-7.112a.54.54 0 0 0-.383-.955Z"/><path id="ah" fill-rule="evenodd" d="M112.824 185.033a.541.541 0 0 0-.331.134l-8.372 7.18a.538.538 0 0 0-.055.766.543.543 0 0 0 .769.055l8.372-7.18a.54.54 0 0 0-.383-.955Z"/><path id="ai" fill-rule="evenodd" d="M113.445 188.419a.545.545 0 0 0-.331.132l-7.964 6.638a.544.544 0 1 0 .698.834l7.963-6.638a.542.542 0 0 0-.366-.966Z"/><path id="aj" fill-rule="evenodd" d="M210.773 88.742c-1.514-.585-2.783-.963-2.783-.963a1.13 1.13 0 0 0-1.318.548s-.492.922-1.2 1.977c-.708 1.055-1.7 2.227-2.259 2.578-1.273.797-3.172.874-5.149 1.024-1.438.11-4.989-.29-4.989-.29l.012.005a1.13 1.13 0 0 0-1.191.681s-2.946 7.334-4.462 10.956c-2.789 6.659-8.581 19.945-8.581 19.945a1.118 1.118 0 0 0-.009.878 1.126 1.126 0 0 0 .623.619l25.92 10.406c.273.11.579.109.851-.004.273-.112.491-.326.607-.597 0 0 8.776-20.432 12.051-29.587.96-2.684 1.645-5.806.922-8.81-.676-2.809-2.495-5.246-4.591-7.038-1.187-1.015-2.934-1.759-4.448-2.344l-.006.016Zm-.815 2.105c1.422.55 3.084 1.349 3.793 1.954 1.81 1.547 3.341 3.663 3.867 5.849.559 2.321.028 5.052-.856 7.523-3.091 8.641-11.01 27.101-11.581 28.436l-23.807-9.553c.56-1.287 5.479-12.566 8.134-18.908 1.43-3.414 3.816-9.357 4.17-10.238.819.1 2.851.38 4.553.25 1.872-.141 4.183-.108 6.181-1.36 1.219-.765 2.156-2.082 2.932-3.237.479-.714.584-.941.812-1.34.446.14.822.244 1.802.624Z"/><path id="ak" fill-rule="evenodd" d="M195.054 131.693 188.722 146l-3.619-1.165 5.622-14.901-2.112-.799-6.036 16.012a1.127 1.127 0 0 0 .709 1.474l5.709 1.84a1.125 1.125 0 0 0 1.38-.618l6.745-15.238-2.066-.912Z"/><path id="al" fill-rule="evenodd" d="M216.844 106.416s-.437.381-1.008.77c-.571.388-1.341.707-1.448.714l-.008-.003c-.033.01-.485-.199-1.091-.64-.304-.221-.639-.474-1.086-.666-.45-.183-1.102-.301-1.709-.044-1.975.829-2.839 2.689-3.426 4.401-.587 1.712-1.008 3.42-1.742 4.488-.684.994-1.152 1.831-1.626 2.065-.722.355-1.739.427-2.076.211-.431-.276-.816-1.368-.81-2.325.005-.695.377-1.451.925-2.364.549-.913 1.258-1.945 1.513-3.282.176-.924.536-2.268-.176-3.588-.811-1.513-2.351-2.75-4.212-2.839-1.745-.084-2.869 1.16-3.659 1.865-.749.669-1.059 1.474-1.349 2.063-.291.589-.519.911-.738 1.027-.664.352-1.774.389-2.28.095-.07-.028-.606-.758-.899-1.475-.293-.717-.463-1.364-.463-1.364l-2.185.562s.197.779.557 1.659c.36.88.761 1.924 1.846 2.56l.004.002c1.44.843 3.147.658 4.474-.044.955-.505 1.386-1.368 1.71-2.025.324-.658.585-1.161.827-1.377.832-.743 1.619-1.314 2.046-1.294.782.038 1.893.825 2.335 1.651.187.346.125 1.16-.054 2.096-.141.742-.651 1.576-1.229 2.54-.579.965-1.241 2.093-1.25 3.513-.009 1.404.29 3.243 1.847 4.241 1.452.931 3.112.496 4.296-.088 1.433-.706 1.965-2.052 2.486-2.809 1.097-1.594 1.488-3.49 2.018-5.036.521-1.52 1.086-2.535 2.132-3.001.121.049.349.2.625.403.568.412 1.333 1.154 2.572 1.072 1.085-.069 1.877-.627 2.571-1.1.695-.473 1.225-.938 1.225-.938l-1.484-1.699-.001.003Z"/><path id="am" fill-rule="evenodd" d="M190.15 112.333a.564.564 0 0 0-.421.029l-3.573 1.666a.565.565 0 1 0 .478 1.023l3.573-1.667a.56.56 0 0 0 .216-.858.57.57 0 0 0-.273-.193Z"/><path id="an" fill-rule="evenodd" d="M190.046 114.271a.564.564 0 0 0-.423.033l-5.189 2.455a.544.544 0 0 0-.191.126.565.565 0 0 0 .452.961.583.583 0 0 0 .219-.068l5.189-2.455a.56.56 0 0 0 .25-.222.56.56 0 0 0-.034-.637.57.57 0 0 0-.273-.193Z"/><path id="ao" fill-rule="evenodd" d="M189.872 116.789a.566.566 0 0 0-.422.019l-6.606 2.944a.566.566 0 0 0-.17.93.568.568 0 0 0 .625.102l6.606-2.944a.557.557 0 0 0 .343-.537.57.57 0 0 0-.376-.514Z"/><path id="ap" fill-rule="evenodd" d="M189.466 118.908a.566.566 0 0 0-.422.019l-7.985 3.525a.542.542 0 0 0-.181.126.575.575 0 0 0-.158.403.57.57 0 0 0 .361.514.563.563 0 0 0 .433-.011l7.985-3.525a.557.557 0 0 0 .343-.537.57.57 0 0 0-.376-.514Z"/><path id="aq" fill-rule="evenodd" d="M189.158 121.372a.56.56 0 0 0-.424.012l-8.366 3.523a.573.573 0 0 0-.312.306.564.564 0 0 0 .751.733l8.365-3.522a.563.563 0 0 0-.014-1.052Z"/><path id="ar" fill-rule="evenodd" d="M189.156 123.351a.57.57 0 0 0-.421.038l-5.701 2.78a.57.57 0 0 0-.196.125.575.575 0 0 0-.167.424.568.568 0 0 0 .856.461l5.701-2.78a.563.563 0 0 0-.072-1.048Z"/><path id="as" fill-rule="evenodd" d="M189.777 125.356a.563.563 0 0 0-.422.042l-3.653 1.863a.561.561 0 0 0-.281.329.562.562 0 0 0 .362.713.569.569 0 0 0 .432-.034l3.652-1.862a.561.561 0 0 0 .317-.557.568.568 0 0 0-.407-.494Z"/><path id="at" fill-rule="evenodd" d="M166.96 14.151c-3.277-1.987-7.431-1.611-10.8-.794-3.434.833-6.917 2.656-9.166 5.551-2.858 3.679-5.083 8.81-4.033 13.639l-.005-.002c1.235 5.682 5.824 11.032 11.349 12.94 5.127 1.77 11.38.33 15.596-2.918 3.915-3.015 6.542-8.256 6.285-13.24-.309-6.008-4.104-12.07-9.226-15.176Zm-1.171 1.929c4.406 2.671 7.878 8.253 8.141 13.362.21 4.077-2.133 8.817-5.408 11.34-3.593 2.766-9.282 4.017-13.481 2.568-4.624-1.598-8.835-6.478-9.878-11.28-.83-3.818 1.04-8.466 3.61-11.774 1.828-2.353 4.886-4.005 7.916-4.74 3.088-.749 6.692-.931 9.098.528l.002-.004Z"/><path id="au" fill-rule="evenodd" d="M150.722 27.756a1.13 1.13 0 0 0-1.505 1.02c-.125 2.25.801 4.457 2.089 6.22 1.25 1.71 3.048 3.583 5.491 4.094 3.701.775 7.939-.219 10.612-2.714a1.13 1.13 0 0 0 .055-1.595 1.132 1.132 0 0 0-1.596-.055c-1.98 1.85-5.668 2.772-8.609 2.157-1.518-.318-3.045-1.735-4.129-3.219-1.05-1.436-1.744-3.244-1.66-4.763a1.128 1.128 0 0 0-.748-1.145Z"/><path id="av" fill-rule="evenodd" d="M167.091 25.426c.402.1.768.467.9.86.122.367.046.837-.187 1.145-.183.242-.52.37-.822.387-.532.029-1.233-.067-1.512-.522-.26-.423-.124-1.1.203-1.475.322-.37.941-.514 1.418-.395Z"/><path id="aw" fill-rule="evenodd" d="M155.89 23.902c.366.197.883.172 1.245-.03.338-.19.597-.588.632-.973.027-.302-.135-.624-.348-.84-.374-.379-.956-.78-1.469-.63-.477.137-.832.73-.843 1.227-.01.49.351 1.014.783 1.246Z"/><path id="ax" fill-rule="evenodd" d="M170.918.058a1.127 1.127 0 0 0-1.428.71l-2.321 6.588a1.139 1.139 0 0 0 .043.865 1.125 1.125 0 0 0 1.508.534 1.127 1.127 0 0 0 .578-.646l2.321-6.588a1.12 1.12 0 0 0-.041-.88 1.12 1.12 0 0 0-.66-.583Z"/><path id="ay" fill-rule="evenodd" d="M151.388 50.727a1.13 1.13 0 0 0-1.425.716l-2.093 5.996a1.12 1.12 0 0 0 .047.864 1.12 1.12 0 0 0 .645.578 1.129 1.129 0 0 0 1.44-.697l2.092-5.996a1.135 1.135 0 0 0-.706-1.46Z"/><path id="az" fill-rule="evenodd" d="M188.531 39.25a1.078 1.078 0 0 0-.074-.03l-6.589-2.32a1.123 1.123 0 0 0-1.262.277 1.129 1.129 0 0 0 .516 1.849l6.588 2.321a1.13 1.13 0 0 0 1.448-.645 1.129 1.129 0 0 0-.625-1.457l-.002.005Z"/><path id="aA" fill-rule="evenodd" d="M137.85 19.72a1.03 1.03 0 0 0-.074-.03l-5.996-2.092a1.134 1.134 0 0 0-1.261.284 1.131 1.131 0 0 0 .119 1.634c.118.098.256.17.403.212l5.997 2.092a1.128 1.128 0 0 0 .814-2.105l-.002.005Z"/><path id="aB" fill-rule="evenodd" d="M187.89 16.043a1.123 1.123 0 0 0-.95.024l-6.301 3.021a1.117 1.117 0 0 0-.615.64 1.138 1.138 0 0 0-.072.448 1.137 1.137 0 0 0 .385.8 1.13 1.13 0 0 0 1.278.144l6.301-3.017a1.124 1.124 0 0 0 .656-1.038 1.131 1.131 0 0 0-.682-1.022Z"/><path id="aC" fill-rule="evenodd" d="M138.246 38.063a1.128 1.128 0 0 0-.952.029l-5.718 2.76a1.128 1.128 0 0 0 .554 2.143c.148-.008.293-.046.427-.11l5.718-2.76a1.128 1.128 0 0 0-.029-2.062Z"/><path id="aD" fill-rule="evenodd" d="M147.72.72a1.13 1.13 0 0 0-1.387 1.567l3.018 6.3a1.133 1.133 0 0 0 1.079.64 1.131 1.131 0 0 0 1.004-.752 1.133 1.133 0 0 0-.047-.863l-3.017-6.3a1.135 1.135 0 0 0-.65-.592Z"/><path id="aE" fill-rule="evenodd" d="M169.743 50.356a1.129 1.129 0 0 0-1.382 1.568l2.763 5.724a1.13 1.13 0 0 0 1.529.571 1.131 1.131 0 0 0 .632-1.12 1.139 1.139 0 0 0-.131-.433l-2.761-5.718a1.12 1.12 0 0 0-.65-.592Z"/><path id="aF" fill-rule="evenodd" d="M154.015 17.962a.567.567 0 0 0-.317-.014l-6.386 1.443a.57.57 0 0 0-.432.455.564.564 0 0 0 .682.648l6.383-1.449a.564.564 0 0 0 .07-1.083Z"/><path id="aG" fill-rule="evenodd" d="M151.944 20.895a.563.563 0 0 0-.372-.016l-6.325 1.787a.563.563 0 0 0-.391.698.566.566 0 0 0 .698.39l6.325-1.788a.559.559 0 0 0 .422-.512.567.567 0 0 0-.357-.56Z"/><path id="aH" fill-rule="evenodd" d="M150.054 24.058a.563.563 0 0 0-.369-.01l-4.634 1.383a.564.564 0 0 0 .323 1.084l4.633-1.383a.558.558 0 0 0 .415-.52.567.567 0 0 0-.368-.554Z"/><path id="aI" fill-rule="evenodd" d="M148.93 26.572a.563.563 0 0 0-.369-.01l-4.634 1.383a.566.566 0 0 0 .323 1.084l4.633-1.383a.565.565 0 0 0 .047-1.074Z"/><path id="aJ" fill-rule="evenodd" d="M148.201 29.239a.563.563 0 0 0-.369-.01l-4.634 1.384a.564.564 0 0 0 .323 1.083l4.633-1.383a.558.558 0 0 0 .415-.52.566.566 0 0 0-.368-.554Z"/><path id="aK" fill-rule="evenodd" d="M148.196 31.378a.563.563 0 0 0-.369-.01l-4.184 1.236a.57.57 0 0 0-.368.263.552.552 0 0 0-.056.45.551.551 0 0 0 .292.345.563.563 0 0 0 .452.02l4.184-1.236a.565.565 0 0 0 .049-1.068Z"/><path id="aL" fill-rule="evenodd" d="M148.843 33.31a.565.565 0 0 0-.374-.011l-4.184 1.236a.57.57 0 0 0-.337.27.558.558 0 0 0-.047.431.561.561 0 0 0 .483.402c.074.008.149 0 .22-.02l4.184-1.236a.563.563 0 0 0 .324-.851.561.561 0 0 0-.269-.22Z"/><path id="aM" fill-rule="evenodd" d="M149.676 35.08a.566.566 0 0 0-.319.004l-4.188 1.234a.567.567 0 0 0 .323 1.085l4.184-1.236a.563.563 0 0 0 .297-.885.564.564 0 0 0-.297-.203Z"/><path id="aN" fill-rule="evenodd" d="M151.05 37a.562.562 0 0 0-.373-.012l-4.184 1.236a.573.573 0 0 0-.368.264.552.552 0 0 0-.056.449.551.551 0 0 0 .292.346.566.566 0 0 0 .452.02l4.188-1.235A.566.566 0 0 0 151.05 37Z"/><path id="aO" fill-rule="evenodd" d="M137.967 275.69a1.123 1.123 0 0 0-1.055.094s-9.353 6.037-13.397 10.353c-4.182 4.463-7.861 9.611-10.287 15.295-1.85 4.336-3.274 10.948-4.275 16.544-1 5.597-1.555 10.156-1.555 10.156a1.13 1.13 0 0 0 .723 1.191l8.926 3.363a1.133 1.133 0 0 0 1.225-.289l6.418-6.944.06-.07s6.471-8.161 8.844-13.164c2.468-5.2 4.146-10.822 4.996-16.507.976-6.528.065-19.063.065-19.063a1.13 1.13 0 0 0-.688-.959Zm-1.477 3.13c.16 2.758.624 11.514-.13 16.558-.818 5.47-2.438 10.884-4.806 15.873-2.083 4.39-8.549 12.694-8.568 12.718l-5.857 6.336-7.36-2.771c.086-.688.503-4.109 1.406-9.161.989-5.53 2.447-12.112 4.131-16.058 2.295-5.378 5.812-10.326 9.854-14.639 2.981-3.181 9.12-7.368 11.33-8.856Z"/><path id="aP" fill-rule="evenodd" d="m135.912 277.235-23.811 52.7 2.052.94 23.812-52.7-2.053-.94Z"/><path id="aQ" fill-rule="evenodd" d="M167.368 293.276a1.133 1.133 0 0 0-.608-.088s-8.827 1.156-13.329 2.516c-4.598 1.389-9.237 3.095-13.407 5.69-2.624 1.633-6.427 5.536-6.427 5.536a1.13 1.13 0 0 0 .375 1.839 1.142 1.142 0 0 0 .864-.004c.136-.057.26-.141.365-.246 0 0 3.986-3.946 6.015-5.209 3.907-2.431 8.359-4.084 12.869-5.447 3.346-1.01 8.545-1.705 10.748-2.021-1.102 2.29-5.787 12.113-9.246 17.647-1.403 2.246-2.788 4.458-4.543 6.193-4.071 4.027-8.996 7.259-14.078 10.106-3.165 1.773-9.644 4.103-10.525 4.423l-4.999-5.999a1.137 1.137 0 0 0-.773-.446 1.123 1.123 0 0 0-1.139.611 1.136 1.136 0 0 0-.056.89c.052.144.133.277.237.389l5.535 6.638a1.132 1.132 0 0 0 1.243.342s7.763-2.738 11.582-4.878c5.176-2.899 10.274-6.234 14.562-10.474 2.009-1.987 3.467-4.356 4.868-6.598 4.035-6.457 10.429-19.89 10.429-19.89a1.119 1.119 0 0 0 .041-.879 1.13 1.13 0 0 0-.603-.641Z"/><path id="aR" fill-rule="evenodd" d="M150.527 307.541a.562.562 0 0 0-.056-.025l-11.621-4.681-.841 2.091 11.08 4.464 2.499 10.491 2.197-.521-2.636-11.059a1.12 1.12 0 0 0-.223-.453 1.115 1.115 0 0 0-.397-.311l-.002.004Z"/><path id="aS" fill-rule="evenodd" d="m145.994 298.69-.978 2.03 9.665 4.639 1.458 7.706 2.219-.42-1.565-8.265a1.138 1.138 0 0 0-.62-.808l-10.179-4.882Z"/><path id="aT" fill-rule="evenodd" d="M128.184 288.827a.563.563 0 0 0-.474.036l-10.203 5.498a.56.56 0 0 0-.108.947.553.553 0 0 0 .639.047l10.208-5.496a.564.564 0 0 0-.062-1.032Z"/><path id="aU" fill-rule="evenodd" d="M126.092 293.574a.564.564 0 0 0-.475.015l-9.79 4.809a.56.56 0 0 0-.286.325.556.556 0 0 0 .028.431.56.56 0 0 0 .543.314.56.56 0 0 0 .213-.056l9.79-4.809a.566.566 0 0 0-.023-1.029Z"/><path id="aV" fill-rule="evenodd" d="M123.275 298.872a.557.557 0 0 0-.472.031l-10.125 5.31a.566.566 0 0 0 .093 1.04.567.567 0 0 0 .431-.039l10.127-5.314a.565.565 0 0 0-.054-1.028Z"/><path id="aW" fill-rule="evenodd" d="M121.477 303.639a.565.565 0 0 0-.476.03l-8.549 4.483a.567.567 0 0 0 .093 1.04.56.56 0 0 0 .43-.039l8.551-4.487a.563.563 0 0 0 .202-.83.566.566 0 0 0-.251-.197Z"/><path id="aX" fill-rule="evenodd" d="M118.795 309.209a.571.571 0 0 0-.475.015l-7.653 3.687a.562.562 0 0 0-.262.754.566.566 0 0 0 .755.262l7.649-3.688a.56.56 0 0 0 .326-.519.565.565 0 0 0-.34-.511Z"/><path id="aY" fill-rule="evenodd" d="M116.539 314.757a.564.564 0 0 0-.427-.008l-5.752 2.13a.576.576 0 0 0-.325.293.558.558 0 0 0-.018.436.565.565 0 0 0 .735.33l5.752-2.131a.559.559 0 0 0 .377-.514.56.56 0 0 0-.342-.536Z"/></defs></svg>