<svg xmlns="http://www.w3.org/2000/svg" fill="none" viewBox="0 0 32 32"><circle cx="16" cy="16" r="16" fill="#18222E"/><path fill="#fff" fill-rule="evenodd" d="M22.181 4.09a.99.99 0 0 1 1.043.602c2.19 5.18 1.919 9.716-.886 14.83-1.341 2.442-2.835 4.523-4.604 6.045-1.787 1.513-4.023 2.574-6.676 3.027a.991.991 0 0 1-.893-.297c-.453-.484-.149-1.227-.207-1.833-.554.253-1.044.888-1.69.738a.991.991 0 0 1-.704-.625c-.933-2.524-1.133-4.99-.716-7.295.433-2.293 1.489-4.628 2.932-7.01 3.027-4.986 6.82-7.49 12.401-8.182ZM12.054 26.27c1.752-.445 3.116-1.245 4.384-2.339 1.568-1.328 2.81-3.077 4.081-5.4 2.187-3.988 2.796-7.053 1.531-10.956l-4.018 6.96c.869.876.714 2.214.033 3.394-.68 1.179-1.762 1.982-2.956 1.668l-3.288 5.694s.21.744.233.978Zm-2.99-1.727c-.492-1.74-.465-3.312-.152-4.957.366-2.022 1.26-3.971 2.636-6.234 2.356-3.88 4.708-5.954 8.708-6.813l-4.018 6.96c-1.194-.315-2.276.488-2.957 1.668-.68 1.179-.835 2.517.034 3.394l-3.288 5.694s-.757.195-.963.288Zm7.34-9.26c-.66-.382-1.523-.125-1.927.574-.403.7-.195 1.575.466 1.956.66.382 1.523.124 1.926-.575.404-.699.195-1.574-.465-1.956Z" clip-rule="evenodd"/></svg>