<svg width="182" height="67" viewBox="0 0 182 67" fill="none" xmlns="http://www.w3.org/2000/svg">
<path d="M1 14.412C12.9668 24.0545 30.9169 -20.1079 63.8255 14.412C96.7341 48.9319 94.241 -21.1255 123.659 14.412C153.078 49.9495 169.532 9.8395 181 14.412M1 33.9127C12.9668 43.5552 30.9169 -0.607135 63.8255 33.9127C96.7341 68.4326 94.241 -1.62473 123.659 33.9127C153.078 69.4502 169.532 29.3402 181 33.9127M1 51.1738C12.9668 60.8163 30.9169 16.6539 63.8255 51.1738C96.7341 85.6936 94.241 15.6363 123.659 51.1738C153.078 86.7112 169.532 46.6013 181 51.1738" stroke="#1188EE" stroke-width="2" stroke-linecap="round"/>
</svg>
