<svg xmlns="http://www.w3.org/2000/svg" xmlns:xlink="http://www.w3.org/1999/xlink" viewBox="0 0 22 39"><use xlink:href="#a" fill="#18E" transform="translate(0 .82)"/><defs><path id="a" fill-rule="evenodd" d="M9.64.28a1.499 1.499 0 0 1 1.743 0c6.497 4.645 9.443 10.214 9.628 18.204.086 3.815-.281 7.308-1.398 10.326-1.145 3.02-3.181 5.81-6.18 8.165a1.5 1.5 0 0 1-1.335.258c-.919-.263-1.075-1.353-1.587-2.032-.511.68-.667 1.768-1.586 2.032-.46.133-.957.037-1.335-.258-2.998-2.356-5.035-5.146-6.18-8.165C.293 25.792-.074 22.299.012 18.484.198 10.494 3.142 4.924 9.64.28Zm3.358 33.253c1.877-1.726 3.007-3.61 3.806-5.777 1.005-2.65 1.295-5.576 1.208-9.203-.145-6.23-1.601-10.284-6.014-14.049v11.011c1.726.445 2.5 2.139 2.5 4.005 0 1.865-.774 3.56-2.5 4.003v9.01s.802.74 1 1Zm-5 0c-1.876-1.726-2.98-3.61-3.78-5.777-1.004-2.65-1.294-5.576-1.207-9.203.145-6.217 1.593-10.29 5.987-14.049v11.011c-1.725.445-2.5 2.139-2.5 4.005 0 1.865.775 3.56 2.5 4.003v9.01s-.809.749-1 1Zm2.5-16.016c-1.104 0-2 .897-2 2.003a2.001 2.001 0 1 0 2-2.003Z"/></defs></svg>