<svg width="22" height="39" viewBox="0 0 22 39" fill="none" xmlns="http://www.w3.org/2000/svg">
<g clip-path="url(#clip0_17_41)">
<path fill-rule="evenodd" clip-rule="evenodd" d="M9.63967 1.0995C10.1612 0.726598 10.8618 0.726598 11.3834 1.0995C17.8802 5.74476 20.8255 11.3136 21.0111 19.3034C21.0968 23.1186 20.7299 26.6119 19.6133 29.6296C18.4681 32.6491 16.4315 35.4389 13.4332 37.7947C13.0549 38.0896 12.5585 38.1857 12.0976 38.0533C11.1793 37.7894 11.023 36.6998 10.5115 36.0207C9.99974 36.7002 9.84439 37.7892 8.9254 38.0533C8.46452 38.1857 7.96817 38.0896 7.58987 37.7947C4.5915 35.4389 2.55499 32.6491 1.40971 29.6296C0.293102 26.6119 -0.0737632 23.1186 0.0119281 19.3034C0.197553 11.3136 3.1428 5.74476 9.63967 1.0995ZM12.9984 34.3533C14.8746 32.6266 16.0052 30.7423 16.8041 28.5758C17.8092 25.9264 18.0991 23.0003 18.0119 19.3732C17.8672 13.1431 16.4108 9.08872 11.9984 5.32432V16.3353C13.7236 16.7797 14.4984 18.4736 14.4984 20.3393C14.4984 22.205 13.7236 23.8989 11.9984 24.3433V33.3523C11.9984 33.3523 12.8001 34.0921 12.9984 34.3533ZM7.99835 34.3533C6.12206 32.6266 5.01787 30.7423 4.21893 28.5758C3.21389 25.9264 2.92391 23.0003 3.01112 19.3732C3.15557 13.1555 4.60442 9.08371 8.99835 5.32432V16.3353C7.27312 16.7797 6.49835 18.4736 6.49835 20.3393C6.49835 22.205 7.27312 23.8989 8.99835 24.3433V33.3523C8.99835 33.3523 8.18923 34.1017 7.99835 34.3533ZM10.4984 18.3373C9.39378 18.3373 8.49835 19.2336 8.49835 20.3393C8.49835 21.445 9.39378 22.3413 10.4984 22.3413C11.6029 22.3413 12.4984 21.445 12.4984 20.3393C12.4984 19.2336 11.6029 18.3373 10.4984 18.3373Z" fill="white"/>
</g>
<defs>
<clipPath id="clip0_17_41">
<rect width="22" height="39" fill="white"/>
</clipPath>
</defs>
</svg>
